<svg width="41" height="29" viewBox="0 0 41 29" fill="none" xmlns="http://www.w3.org/2000/svg">
<path d="M40.5916 6.30007C40.5916 6.30007 40.1912 3.47332 38.958 2.2321C37.3965 0.598511 35.6508 0.590503 34.85 0.494409C29.1164 0.0780027 20.508 0.0780029 20.508 0.0780029H20.492C20.492 0.0780029 11.8836 0.0780027 6.15 0.494409C5.34922 0.590503 3.60352 0.598511 2.04199 2.2321C0.808789 3.47332 0.416406 6.30007 0.416406 6.30007C0.416406 6.30007 0 9.62332 0 12.9385V16.0456C0 19.3608 0.408398 22.6841 0.408398 22.6841C0.408398 22.6841 0.808789 25.5108 2.03398 26.752C3.59551 28.3856 5.64551 28.3296 6.5584 28.5057C9.8416 28.818 20.5 28.9141 20.5 28.9141C20.5 28.9141 29.1164 28.8981 34.85 28.4897C35.6508 28.3936 37.3965 28.3856 38.958 26.752C40.1912 25.5108 40.5916 22.6841 40.5916 22.6841C40.5916 22.6841 41 19.3688 41 16.0456V12.9385C41 9.62332 40.5916 6.30007 40.5916 6.30007ZM16.2639 19.8173V8.29402L27.3387 14.0757L16.2639 19.8173Z" fill="#7B3232"/>
</svg>
